<svg xmlns="http://www.w3.org/2000/svg" version="1.1" id="Layer_1" x="0" y="0" viewBox="0 0 125.3 147" xml:space="preserve"><path d="M116.1 115.9l-10.4-10.4c0 0 0 0 0.1-0.1l-8.3-8.3c-6.2 6.6-14.9 10.5-24.6 10.5 -11.6 0-21.8-5.7-28-14.5l0 0c-2.5-3.3-3.9-7.2-5.1-11 -0.1-0.4-0.2-0.7-0.3-1.1 0.1 0.3 0.2 0.6 0.3 0.9 -0.2-0.8-0.5-1.6-0.7-2.6l0 0c0 0.2 0.1 0.5 0.1 0.7 0-0.2-0.1-0.4-0.1-0.5 -2.3-10.6 0.3-22 8.2-30.6 11.4-12.3 29.8-14.3 43.5-5.5l-23 24.8 8.8 8.2 23-24.8 5.2-5.6 3-3.3c-1.3-1.5-2.7-3-4.2-4.4C85 21.3 55.9 22.4 38.7 41c-12.5 13.5-15.6 32.3-9 48.4 6.5 17.3 23.5 30.3 43.3 30.2 8.5 0 16.5-2.5 23.3-6.6l10.6 10.6c-9.5 6.3-20.8 10-33 10 -33 0-59.7-26.7-59.7-59.7S40.7 14 73.7 14c16.4 0 31.2 6.6 42 17.3l9.6-9.6C112 8.3 93.6 0 73.2 0 32.8 0 0 32.8 0 73.2c0 40.5 32.8 73.2 73.2 73.2 20.4 0 38.8-8.3 52-21.7l-9.1-9.1C116.2 115.8 116.1 115.8 116.1 115.9z"/></svg>