<?xml version="1.0" standalone="no"?>
<!DOCTYPE svg PUBLIC "-//W3C//DTD SVG 20010904//EN"
 "http://www.w3.org/TR/2001/REC-SVG-20010904/DTD/svg10.dtd">
<svg version="1.0" xmlns="http://www.w3.org/2000/svg"
 width="300.000000pt" height="300.000000pt" viewBox="0 0 300.000000 300.000000"
 preserveAspectRatio="xMidYMid meet">
<metadata>
Created by potrace 1.11, written by Peter Selinger 2001-2013
</metadata>
<g transform="translate(0.000000,300.000000) scale(0.100000,-0.100000)"
fill="#000000" stroke="none">
<path d="M1388 2906 c-1 -2 -29 -6 -60 -10 -564 -59 -1056 -492 -1197 -1051
-31 -125 -33 -140 -36 -315 -7 -298 55 -528 205 -771 224 -361 604 -605 1021
-656 78 -9 262 -10 344 -1 270 30 569 165 765 347 l65 60 -297 296 -296 297
-54 -40 c-118 -89 -223 -123 -368 -118 -66 2 -115 9 -159 25 -349 121 -489
535 -285 843 144 216 406 300 663 212 10 -3 -47 -67 -169 -189 l-185 -185 125
-125 125 -124 318 315 c174 173 317 320 317 325 0 19 -155 171 -214 210 -169
111 -320 157 -516 157 -138 0 -219 -14 -325 -54 -621 -237 -791 -1031 -321
-1500 121 -120 247 -192 416 -238 78 -21 132 -27 235 -26 123 1 143 5 328 57
12 4 35 -12 72 -49 l55 -55 -48 -21 c-74 -32 -209 -69 -282 -77 -651 -75
-1211 432 -1194 1080 1 61 5 121 8 135 3 14 11 50 17 80 26 126 106 296 194
410 89 116 230 232 363 299 73 37 219 87 277 95 23 4 52 9 65 11 38 8 208 8
270 1 257 -32 521 -178 692 -384 l23 -28 123 124 123 125 -108 106 c-171 169
-354 279 -583 350 -64 19 -78 23 -150 35 -19 3 -48 9 -65 12 -33 6 -291 15
-297 10z"/>
</g>
</svg>
